<svg preserveAspectRatio="none" overflow="visible" style="display: block;" width="40" height="40" viewBox="0 0 40 40" fill="none" xmlns="http://www.w3.org/2000/svg">
<g id="Pause-icon">
<path id="Vector" d="M20.6201 6.22656C22.0613 6.28585 23.4536 6.55289 24.7949 7.02832C26.0469 7.47209 27.2343 8.07987 28.3574 8.84863C28.5878 9.00633 28.8808 8.97445 29.0537 8.7998L29.9004 7.94434C30.4872 7.35159 31.4452 7.35183 32.0322 7.94434L32.8037 8.72363C33.382 9.30816 33.3821 10.2496 32.8037 10.834L31.9297 11.7158C31.7593 11.8879 31.7297 12.1756 31.8828 12.4033C32.6491 13.5426 33.2531 14.7483 33.6943 16.0186C34.2316 17.5655 34.5 19.1795 34.5 20.8574C34.5 22.8609 34.1169 24.7554 33.3496 26.5361C32.5864 28.3073 31.5481 29.8593 30.2334 31.1875C28.9186 32.5157 27.3814 33.5663 25.626 34.3389C23.8606 35.1158 21.9827 35.5022 19.999 35.5C18.0162 35.4978 16.1397 35.1111 14.374 34.3389H14.373C12.6195 33.5673 11.0824 32.5167 9.7666 31.1875C8.45079 29.8582 7.4116 28.3055 6.64941 26.5342C5.88331 24.7536 5.50107 22.8597 5.5 20.8574C5.49893 18.8547 5.88197 16.9596 6.65039 15.1777C7.41459 13.4057 8.45288 9.85349 9.7666 10.5264C11.0804 9.19921 12.6177 8.14944 14.374 7.37695C16.1402 6.60018 18.0175 6.21282 20 6.21387L20.6201 6.22656ZM20 10.3574C17.1268 10.3574 14.6878 11.3774 12.6553 13.4307C10.6227 15.4841 9.61133 17.9504 9.61133 20.8574C9.61139 23.7645 10.6226 26.2308 12.6553 28.2842C14.6878 30.3374 17.1268 31.3574 20 31.3574C22.8732 31.3574 25.3122 30.3374 27.3447 28.2842C29.3774 26.2308 30.3886 23.7645 30.3887 20.8574C30.3887 17.9504 29.3773 15.4841 27.3447 13.4307C25.3122 11.3774 22.8732 10.3574 20 10.3574ZM17.4443 14.0713C18.2727 14.0713 18.9443 14.7429 18.9443 15.5713V26.1426C18.9443 26.971 18.2728 27.6426 17.4443 27.6426H16.333C15.5047 27.6424 14.833 26.9709 14.833 26.1426V15.5713C14.8331 14.743 15.5048 14.0715 16.333 14.0713H17.4443ZM23.667 14.0713C24.4952 14.0715 25.1669 14.743 25.167 15.5713V26.1426C25.167 26.9709 24.4953 27.6424 23.667 27.6426H22.5557C21.7272 27.6426 21.0557 26.971 21.0557 26.1426V15.5713C21.0557 14.7429 21.7273 14.0713 22.5557 14.0713H23.667ZM23.667 1.5C24.4953 1.50018 25.167 2.17168 25.167 3V4.14258C25.167 4.9709 24.4953 5.6424 23.667 5.64258H16.333C15.5047 5.6424 14.833 4.9709 14.833 4.14258V3C14.833 2.17168 15.5047 1.50018 16.333 1.5H23.667Z" fill="url(#paint0_linear_0_4)" stroke="white"/>
</g>
<defs><linearGradient id="paint0_linear_0_4" x1="20.732" y1="-30.4844" x2="60.5103" y2="38.9299" gradientUnits="userSpaceOnUse"><stop stop-color="#403CF8"/><stop offset="0.495192" stop-color="#8B70F0"/><stop offset="1" stop-color="#FCA8D9"/></linearGradient></defs>
</svg>
